<svg width="99" height="96" viewBox="0 0 99 96" fill="none" xmlns="http://www.w3.org/2000/svg">
<g id="logo-instagram 2">
<g id="Group">
<path id="Vector" d="M49.0701 8.64873C62.1718 8.64873 63.7233 8.69673 68.899 8.92758C72.0109 8.96482 75.0933 9.52375 78.012 10.5801C80.1287 11.3785 82.051 12.6017 83.6551 14.1708C85.2592 15.7398 86.5097 17.6201 87.326 19.6905C88.4059 22.5455 88.9773 25.5604 89.0154 28.6044C89.2491 33.667 89.3005 35.1846 89.3005 48C89.3005 60.8154 89.2514 62.333 89.0154 67.3956C88.9773 70.4395 88.4059 73.4545 87.326 76.3095C86.5097 78.3799 85.2592 80.2602 83.6551 81.8292C82.051 83.3983 80.1287 84.6215 78.012 85.4199C75.0933 86.4762 72.0109 87.0352 68.899 87.0724C63.7257 87.301 62.1741 87.3513 49.0701 87.3513C35.966 87.3513 34.4145 87.3033 29.2411 87.0724C26.1292 87.0352 23.0468 86.4762 20.1281 85.4199C18.0114 84.6215 16.0892 83.3983 14.485 81.8292C12.8809 80.2602 11.6304 78.3799 10.8141 76.3095C9.73419 73.4545 9.16278 70.4395 9.12469 67.3956C8.89103 62.333 8.83962 60.8154 8.83962 48C8.83962 35.1846 8.88869 33.667 9.12469 28.6044C9.16278 25.5604 9.73419 22.5455 10.8141 19.6905C11.6304 17.6201 12.8809 15.7398 14.485 14.1708C16.0892 12.6017 18.0114 11.3785 20.1281 10.5801C23.0468 9.52375 26.1292 8.96482 29.2411 8.92758C34.4168 8.69901 35.9684 8.64873 49.0701 8.64873ZM49.0701 0C35.751 0 34.0733 0.0548544 28.8392 0.287986C24.7665 0.367223 20.737 1.1215 16.9222 2.51874C13.6496 3.72477 10.6856 5.61474 8.23676 8.05676C5.73792 10.4529 3.80408 13.3539 2.57034 16.5569C1.14188 20.2884 0.370755 24.2298 0.289747 28.2135C0.0560802 33.3287 0 34.9698 0 47.9977C0 61.0257 0.0560799 62.6667 0.29442 67.7865C0.375428 71.7702 1.14656 75.7116 2.57501 79.4431C3.80739 82.6457 5.73961 85.5466 8.23676 87.9432C10.6869 90.3858 13.6526 92.2758 16.9268 93.4813C20.7417 94.8785 24.7711 95.6328 28.8438 95.712C34.078 95.9406 35.7487 96 49.0747 96C62.4008 96 64.0715 95.9451 69.3056 95.712C73.3783 95.6328 77.4078 94.8785 81.2226 93.4813C84.4813 92.2457 87.4405 90.3586 89.9109 87.9406C92.3814 85.5225 94.3088 82.6268 95.5698 79.4385C96.9982 75.707 97.7694 71.7656 97.8504 67.7819C98.084 62.6667 98.1401 61.0257 98.1401 47.9977C98.1401 34.9698 98.084 33.3287 97.8457 28.2089C97.7647 24.2252 96.9936 20.2838 95.5651 16.5524C94.3327 13.3497 92.4005 10.4488 89.9034 8.05219C87.4532 5.60961 84.4875 3.71961 81.2133 2.51417C77.3984 1.11693 73.369 0.362652 69.2963 0.283415C64.0668 0.0548547 62.3891 0 49.0701 0Z" fill="white"/>
<path id="Vector_2" d="M49.0785 23.375C44.0947 23.375 39.2228 24.8206 35.0789 27.5289C30.935 30.2373 27.7053 34.0868 25.798 38.5906C23.8908 43.0944 23.3918 48.0503 24.3641 52.8316C25.3364 57.6128 27.7363 62.0046 31.2604 65.4517C34.7845 68.8988 39.2745 71.2463 44.1625 72.1973C49.0506 73.1484 54.1172 72.6603 58.7216 70.7947C63.3261 68.9292 67.2616 65.77 70.0304 61.7167C72.7993 57.6633 74.2772 52.8979 74.2772 48.023C74.2772 41.4859 71.6223 35.2166 66.8967 30.5942C62.171 25.9718 55.7616 23.375 49.0785 23.375ZM49.0785 64.0222C45.8435 64.0222 42.6811 63.0839 39.9912 61.3259C37.3014 59.5678 35.2049 57.0691 33.9669 54.1456C32.7289 51.2221 32.405 48.0052 33.0361 44.9017C33.6673 41.7981 35.2251 38.9473 37.5126 36.7098C39.8001 34.4723 42.7146 32.9485 45.8875 32.3312C49.0604 31.7138 52.3492 32.0307 55.338 33.2416C58.3268 34.4525 60.8813 36.5032 62.6786 39.1343C64.4759 41.7653 65.4352 44.8586 65.4352 48.023C65.4352 52.2662 63.7119 56.3357 60.6445 59.3361C57.577 62.3366 53.4166 64.0222 49.0785 64.0222Z" fill="white"/>
<path id="Vector_3" d="M75.2683 28.1445C78.5204 28.1445 81.1567 25.5657 81.1567 22.3847C81.1567 19.2037 78.5204 16.625 75.2683 16.625C72.0162 16.625 69.3799 19.2037 69.3799 22.3847C69.3799 25.5657 72.0162 28.1445 75.2683 28.1445Z" fill="white"/>
</g>
</g>
</svg>
